<svg width="18" height="18" viewBox="0 0 18 18" fill="none" xmlns="http://www.w3.org/2000/svg">
<g id="Group">
<path id="Vector" d="M10.8333 4.41667C11.3196 4.41667 11.7859 4.22351 12.1297 3.8797C12.4735 3.53588 12.6667 3.06956 12.6667 2.58333C12.6667 2.0971 12.4735 1.63079 12.1297 1.28697C11.7859 0.943154 11.3196 0.75 10.8333 0.75C10.3471 0.75 9.88079 0.943154 9.53697 1.28697C9.19315 1.63079 9 2.0971 9 2.58333C9 3.06956 9.19315 3.53588 9.53697 3.8797C9.88079 4.22351 10.3471 4.41667 10.8333 4.41667Z" stroke="#D27C2C" stroke-width="1.5" stroke-linecap="round" stroke-linejoin="round"/>
<path id="Vector_2" d="M14.5 17.25C15.2293 17.25 15.9288 16.9603 16.4445 16.4445C16.9603 15.9288 17.25 15.2293 17.25 14.5C17.25 13.7707 16.9603 13.0712 16.4445 12.5555C15.9288 12.0397 15.2293 11.75 14.5 11.75C13.7707 11.75 13.0712 12.0397 12.5555 12.5555C12.0397 13.0712 11.75 13.7707 11.75 14.5C11.75 15.2293 12.0397 15.9288 12.5555 16.4445C13.0712 16.9603 13.7707 17.25 14.5 17.25Z" stroke="#D27C2C" stroke-width="1.5" stroke-linecap="round" stroke-linejoin="round"/>
<path id="Vector_3" d="M3.5 17.25C4.22935 17.25 4.92882 16.9603 5.44454 16.4445C5.96027 15.9288 6.25 15.2293 6.25 14.5C6.25 13.7707 5.96027 13.0712 5.44454 12.5555C4.92882 12.0397 4.22935 11.75 3.5 11.75C2.77065 11.75 2.07118 12.0397 1.55546 12.5555C1.03973 13.0712 0.75 13.7707 0.75 14.5C0.75 15.2293 1.03973 15.9288 1.55546 16.4445C2.07118 16.9603 2.77065 17.25 3.5 17.25V17.25Z" stroke="#D27C2C" stroke-width="1.5" stroke-linecap="round" stroke-linejoin="round"/>
<path id="Vector_4" d="M8.5417 14.5L9.9167 10.8333L5.44153 9L8.19153 5.79167L10.9415 8.08333H14.1499" stroke="#D27C2C" stroke-width="1.5" stroke-linecap="round" stroke-linejoin="round"/>
</g>
</svg>
