<svg width="22" height="22" viewBox="0 0 22 22" fill="none" xmlns="http://www.w3.org/2000/svg">
<g id="foundation:foot">
<path id="Vector" d="M6.28077 8.84993C6.80834 8.84993 7.23601 8.42226 7.23601 7.89469C7.23601 7.36713 6.80834 6.93945 6.28077 6.93945C5.75321 6.93945 5.32553 7.36713 5.32553 7.89469C5.32553 8.42226 5.75321 8.84993 6.28077 8.84993Z" fill="black"/>
<path id="Vector_2" d="M14.4747 5.34556C15.5399 5.34556 16.4034 4.48204 16.4034 3.41682C16.4034 2.35161 15.5399 1.48808 14.4747 1.48808C13.4095 1.48808 12.5459 2.35161 12.5459 3.41682C12.5459 4.48204 13.4095 5.34556 14.4747 5.34556Z" fill="black"/>
<path id="Vector_3" d="M10.4966 5.23555C11.1611 5.23555 11.6998 4.69687 11.6998 4.03237C11.6998 3.36788 11.1611 2.82919 10.4966 2.82919C9.83214 2.82919 9.29346 3.36788 9.29346 4.03237C9.29346 4.69687 9.83214 5.23555 10.4966 5.23555Z" fill="black"/>
<path id="Vector_4" d="M16.0387 16.2895C15.7422 15.8136 15.5758 15.2683 15.5561 14.708C15.5364 14.1477 15.6641 13.5921 15.9265 13.0966L15.919 13.0854C16.4129 12.3459 16.676 11.4763 16.6749 10.5871C16.6749 8.09534 14.6549 6.07552 12.1634 6.07552C9.67164 6.07552 7.65182 8.09534 7.65182 10.5871C7.65182 11.0737 7.73103 11.5414 7.87381 11.9808C7.9683 12.3693 8.12173 12.7411 8.32877 13.0832L8.30765 13.0953L11.5755 18.7557C11.9205 19.7765 12.8839 20.5121 14.0208 20.5121C15.4473 20.5121 16.6043 19.3558 16.6043 17.9291C16.6043 17.3103 16.386 16.7424 16.0228 16.2976L16.0387 16.2895V16.2895Z" fill="black"/>
<path id="Vector_5" d="M7.95542 6.8277C8.48299 6.8277 8.91066 6.40003 8.91066 5.87246C8.91066 5.3449 8.48299 4.91722 7.95542 4.91722C7.42786 4.91722 7.00018 5.3449 7.00018 5.87246C7.00018 6.40003 7.42786 6.8277 7.95542 6.8277Z" fill="black"/>
</g>
</svg>
