<svg width="16" height="21" viewBox="0 0 16 21" fill="none" xmlns="http://www.w3.org/2000/svg">
<g id="Vector">
<path d="M7.58438 6.22016C7.58438 6.22016 7.77688 6.96266 6.95188 7.15516C6.23 7.32532 6.07875 6.59657 6.07875 6.59657C6.07875 6.59657 5.91891 5.86094 5.58891 5.78876C5.46344 5.76126 5.43594 5.79219 5.07672 5.73891C4.46313 5.6461 4.30157 5.34876 4.25 5.07891C4.23282 4.99641 4.22594 4.91563 4.22078 4.84516C4.21219 4.74719 4.2036 4.66813 4.16922 4.62344C4.14172 4.58735 3.76016 4.44126 3.81172 4.25735C3.88047 4.01329 4.33078 3.81907 4.31188 3.59219C4.3136 3.53376 4.27578 3.34297 4.27063 3.31719C4.23453 3.10063 4.24657 2.79813 4.31532 2.49907C4.50438 1.67407 5.04235 1.05016 5.96531 0.962505C6.79203 0.88688 7.73735 1.50219 8.12406 2.2361C8.37156 2.70704 8.01235 3.92219 7.58953 4.56501C7.03953 5.40376 7.58438 6.22016 7.58438 6.22016Z" fill="#FFCA28"/>
<path d="M4.67625 4.98782C4.54563 5.07204 4.39781 5.0961 4.25 5.07891C4.23282 4.99641 4.22594 4.91563 4.22078 4.84516C4.33766 4.86922 4.48547 4.86235 4.57313 4.83313C4.73469 4.77813 4.82063 4.89844 4.67625 4.98782Z" fill="#795548"/>
<path d="M5.16251 3.77159C5.16893 3.60465 5.08647 3.46595 4.97834 3.46179C4.87021 3.45763 4.77735 3.5896 4.77093 3.75654C4.76451 3.92349 4.84697 4.06219 4.9551 4.06635C5.06324 4.0705 5.1561 3.93854 5.16251 3.77159Z" fill="#404040"/>
<path d="M4.85844 3.34297C4.66938 3.40485 4.61954 3.2811 4.68141 3.17626C4.7261 3.10063 4.83954 3.0336 5.06469 3.06969C5.2761 3.10407 5.36719 3.22266 5.42563 3.29485C5.48407 3.36704 5.48063 3.44094 5.4325 3.44782C5.36547 3.46157 5.09219 3.26735 4.85844 3.34297Z" fill="#6D4C41"/>
<path d="M12.9916 14.2038L9.79985 14.8414L8.91125 11.77L6.77485 13.2017L8.33203 16.3298L8.33891 16.3247C8.46946 16.5563 8.68432 16.7287 8.93875 16.8059C9.0161 16.83 9.09344 16.8438 9.1725 16.8489V16.8523L9.19828 16.8506C9.29453 16.8558 9.38906 16.8489 9.48016 16.83L13.4195 15.333L12.9916 14.2038Z" fill="#616161"/>
<path d="M13.6756 13.5489C13.6206 13.4561 13.502 13.4269 13.4092 13.4819L13.0019 13.7259C12.7252 13.8909 12.5756 14.3602 12.5756 14.3602L13.1806 15.3759L14.028 16.1116C14.2463 16.2817 14.547 16.3006 14.7859 16.1614L14.9698 16.0531C15.0506 16.005 15.0781 15.9002 15.03 15.8194L13.6756 13.5489Z" fill="#325599"/>
<path d="M3.71032 19.5594L5.67141 15.8125C5.67141 15.8125 8.11375 13.7913 8.32688 13.6486C9.12266 13.1158 9.28078 12.375 9.20172 11.837C9.13985 11.4194 8.86313 10.8642 8.86313 10.8642L5.65766 11.8198L5.80891 12.4077C5.80891 12.4077 4.8275 13.6761 4.59891 13.9408C4.37031 14.2055 3.97844 14.575 3.67422 15.6183C3.35282 16.7183 2.54672 19.3703 2.54672 19.3703L3.71032 19.5594Z" fill="#7C7C7C"/>
<path d="M3.7086 20.7264C3.81516 20.7436 3.91485 20.6714 3.93203 20.5666L4.00766 20.0973C4.06094 19.7794 3.79797 19.3634 3.79797 19.3634L2.63094 19.1709L1.52235 19.3445C1.25078 19.403 1.04282 19.6195 0.996409 19.8928L0.960316 20.1042C0.944847 20.197 1.00672 20.2847 1.09953 20.3002L3.7086 20.7264Z" fill="#4568AD"/>
<path d="M4.60407 8.42532L3.06406 7.25313L2.31469 8.05407L3.86844 9.55969L3.87016 9.55797C4.17438 9.87594 4.88766 10.0925 5.48063 9.55282C6.04438 9.03891 6.74047 7.94407 6.74047 7.94407L5.53563 6.97813L4.60407 8.42532Z" fill="url(#paint0_linear_18_254)"/>
<path d="M4.64016 7.72407C5.08188 8.95985 6.16469 8.99766 6.16469 8.99766L7.0275 7.51954C7.13889 7.32847 7.16996 7.10103 7.1139 6.88709C7.05784 6.67315 6.91922 6.49017 6.72844 6.37829L6.58578 6.29407C6.18875 6.06204 5.85188 6.17547 5.31735 6.95579C4.83782 7.65876 4.64016 7.72407 4.64016 7.72407Z" fill="#ED6D23"/>
<path d="M5.65766 11.8181C5.23141 10.1269 5.15235 8.93923 5.2486 7.98704C5.37235 6.78735 5.94469 6.07063 6.5875 5.84376C7.38156 5.5636 7.93157 5.96751 8.15328 6.68594C8.30453 7.17579 8.27531 7.55219 8.26328 7.78594C8.26328 7.78594 8.15328 9.06985 9.17422 10.6769C9.17422 10.6769 9.07625 11.3747 7.44688 11.758C6.72156 11.9281 5.65766 11.8181 5.65766 11.8181Z" fill="url(#paint1_linear_18_254)"/>
<path d="M8.28219 10.2455C8.28219 10.2455 7.53625 9.87422 7.52766 9.87079C7.50533 9.85876 7.48084 9.85126 7.4556 9.84872C7.43037 9.84619 7.40488 9.84866 7.3806 9.85601C7.35632 9.86336 7.33373 9.87543 7.31414 9.89153C7.29454 9.90764 7.27832 9.92746 7.26641 9.94985L7.10656 10.2489C7.08078 10.2988 7.07906 10.3538 7.09625 10.4036C7.01031 10.4534 6.79891 10.5841 6.75422 10.6717C6.70266 10.7714 6.7611 10.8763 6.8161 10.9003C6.87969 10.9278 6.90891 11.0172 6.89 11.0842C6.86938 11.153 6.8711 11.2234 6.90375 11.2802C6.93641 11.3369 6.97766 11.3592 7.05672 11.3747C7.09453 11.3816 7.13406 11.4297 7.13406 11.4675C7.13235 11.5259 7.13235 11.6273 7.16156 11.6652C7.22 11.7425 7.31625 11.7184 7.3661 11.7752C7.385 11.7975 7.38672 11.8955 7.42625 11.9316C7.54313 12.0416 7.92297 11.8388 7.92297 11.8388L8.64828 11.1667L8.28219 10.2455Z" fill="#EDA600"/>
<path d="M8.04156 10.1286L8.50047 10.2575L8.815 11.1255C8.815 11.1255 7.8336 12.0914 7.66688 11.8216C7.6136 11.7373 7.71156 11.6463 7.56891 11.593C7.4675 11.5552 7.39188 11.507 7.4211 11.3506C7.43313 11.2922 7.38672 11.22 7.34547 11.2148C7.15985 11.1925 7.11172 11.0894 7.16672 10.9588C7.19766 10.8866 7.19078 10.7645 7.08594 10.7095C7.04813 10.6889 6.99485 10.6047 7.01891 10.4844C7.05844 10.297 8.04156 10.1286 8.04156 10.1286Z" fill="url(#paint2_linear_18_254)"/>
<path d="M8.67235 11.2338L10.3722 10.0873V10.0856C10.5767 9.88282 10.6489 9.74188 10.6902 9.57172C10.8208 9.03891 10.4736 8.66766 10.4736 8.66766L8.90094 6.90938L7.93157 7.91141L9.31344 9.29329L8.28047 10.2472L8.67235 11.2338Z" fill="url(#paint3_linear_18_254)"/>
<path d="M8.70672 8.93922C8.70672 8.93922 9.74829 7.90969 9.72079 7.11735C9.72079 7.11735 9.22407 7.11563 8.485 6.55704C8.01922 6.20641 7.40047 6.17719 7.15125 6.58626C6.92953 6.94719 6.96563 7.39235 7.39188 7.90282C7.71157 8.28266 8.70672 8.93922 8.70672 8.93922Z" fill="#ED6D23"/>
<path d="M2.23735 7.45766L2.23219 7.4611C2.15828 7.55391 2.0311 7.57969 1.9486 7.5161L1.61344 7.26344C1.53094 7.20157 1.52407 7.07438 1.59797 6.98157C1.67188 6.88876 1.79907 6.86297 1.88157 6.92657L2.21672 7.17922C2.30094 7.24282 2.31297 7.36485 2.23735 7.45766Z" fill="url(#paint4_linear_18_254)"/>
<path d="M2.51922 6.40063C2.52438 6.40407 2.5261 6.40751 2.5261 6.40751C2.67907 6.57079 2.81485 6.70657 2.87328 6.74266C3.02797 6.84063 3.17235 6.96438 3.26172 7.13797C3.42844 7.46282 3.21532 7.78251 2.9661 8.01797C2.7186 8.25516 2.56219 8.30672 2.29235 8.26204C2.07235 8.22594 1.60657 7.73266 1.60657 7.73266C1.55844 7.67594 1.50344 7.61751 1.44844 7.56251C1.42782 7.54188 1.40547 7.52126 1.38485 7.49891L1.38313 7.49719C1.31953 7.43532 1.31094 7.35282 1.38141 7.26688C1.47422 7.15344 1.56532 7.21188 1.57563 7.22047L1.57735 7.22219C1.62032 7.26172 1.66672 7.31501 1.7011 7.34079C1.80078 7.41469 1.85578 7.42844 1.85578 7.42844L2.32672 6.83032L2.16688 6.61719C2.16688 6.61719 2.16516 6.61376 2.16 6.6086C2.14282 6.5811 2.07578 6.48313 2.20297 6.36797C2.34391 6.24766 2.49 6.37313 2.51922 6.40063Z" fill="url(#paint5_linear_18_254)"/>
<path d="M2.50375 7.21188C2.42125 7.29954 2.29235 7.31329 2.215 7.24454L1.85922 6.92657C1.78188 6.85782 1.78532 6.73063 1.86782 6.64297C1.95032 6.55532 2.07922 6.54157 2.15657 6.61032L2.51235 6.92829C2.58797 6.99876 2.58453 7.12422 2.50375 7.21188Z" fill="url(#paint6_linear_18_254)"/>
<path d="M2.04141 7.26344C2.11875 7.15172 2.21328 7.01423 2.31813 6.89563C2.3336 6.87844 2.34735 6.86297 2.36282 6.84751C2.50719 6.69797 2.69625 6.67219 2.93344 6.8011C2.94203 6.80626 2.94891 6.80969 2.9575 6.81485C2.97125 6.82344 2.985 6.83204 3.00047 6.84063L3.00219 6.84235C3.02282 6.8561 3.04344 6.86985 3.06407 6.88532C3.13453 6.93688 3.18782 7.00047 3.22047 7.06235C3.3511 7.27032 3.31328 7.46798 3.31328 7.46798C3.31328 7.46798 3.16203 7.9286 2.9386 7.84782C2.71516 7.76704 2.6 7.44907 2.6 7.44907L2.65844 7.21876C2.59141 7.21188 2.53297 7.2411 2.45391 7.33048C2.42813 7.35969 2.39891 7.39579 2.36453 7.43876C2.3611 7.44391 2.31813 7.49719 2.31469 7.50063C2.26313 7.55735 2.20469 7.58485 2.13422 7.57969C2.04313 7.57454 1.96578 7.48688 1.92282 7.45251C1.95547 7.41126 1.99844 7.3236 2.04141 7.26344Z" fill="url(#paint7_linear_18_254)"/>
<path d="M1.94 7.79454L2.21844 7.56594L2.36625 7.39751L2.55875 7.22907L2.62578 7.25829L2.58453 7.47829L2.72891 7.69485L2.82 7.77219L2.34735 8.10735L1.94 7.79454Z" fill="url(#paint8_radial_18_254)"/>
<path d="M1.95891 7.66907C1.95375 7.77563 1.85063 7.83407 1.8575 7.83579C1.88672 7.84782 2.0311 7.81172 2.19094 7.63297C2.31469 7.49376 2.43328 7.31329 2.57766 7.27032C2.52782 7.51438 2.6361 7.70173 2.83547 7.77563C2.6825 7.63298 2.55875 7.39235 2.69797 7.19985C2.58453 7.1311 2.45219 7.24454 2.38516 7.32704C2.30782 7.41985 2.23907 7.56422 2.09641 7.54532C1.99844 7.53329 1.96235 7.47141 1.99672 7.3786C2.08266 7.15172 2.28375 6.91969 2.49 6.79079C2.56563 6.74438 2.72032 6.73235 2.91969 6.77188C2.7736 6.65844 2.52438 6.69454 2.42985 6.73922C2.34907 6.77704 2.36969 6.76157 2.2975 6.71516C2.26141 6.6911 2.22532 6.66704 2.19094 6.64469C2.22016 6.69282 2.27172 6.75126 2.28032 6.80797C2.29063 6.87844 2.2236 6.9386 2.18235 6.98844C2.07578 7.11563 1.98297 7.00563 1.87297 6.93688C1.94688 7.02454 1.96406 7.05204 2.00188 7.11391C2.05172 7.19813 1.9761 7.26688 1.9211 7.33219C1.80938 7.46626 1.57906 7.19297 1.5636 7.21016C1.54641 7.23079 1.96406 7.55219 1.95891 7.66907Z" fill="#EDA600"/>
<path d="M8.64828 2.20344C8.43172 1.62938 7.97281 1.44891 7.82328 1.40422C7.75625 1.19626 7.41422 0.407349 6.11657 0.596412C5.80032 0.642818 5.56828 0.788912 5.36203 0.917818C5.27438 0.972818 5.19016 1.0261 5.11282 1.06047C5.04922 1.08969 4.9375 1.11547 4.84641 1.08282C4.63844 1.01063 4.71235 0.696099 4.71235 0.696099C4.71235 0.696099 3.94578 0.833599 4.26203 1.57782C4.00422 1.6861 3.88047 1.95594 3.83063 2.21032C3.76188 2.55751 3.92688 2.89438 4.2586 3.04907C4.2586 3.04907 4.20188 2.48704 5.01141 2.53516C5.26235 2.55063 5.5236 2.5936 5.75906 2.50422C5.84844 2.46985 5.93266 2.41485 6.02031 2.3736H6.05125C6.35547 2.54376 5.93781 3.25876 6.27125 3.68844C6.33656 3.77266 6.395 3.74344 6.395 3.74344L6.53594 3.54579C6.6425 3.41001 6.73875 3.29141 6.86766 3.32235C7.2475 3.41344 7.16672 4.09235 6.71125 4.23501C6.66656 4.24876 6.75766 5.01016 7.6961 5.02735C8.18078 5.03594 8.35953 4.63719 8.35953 4.63719C8.35953 4.63719 8.15156 4.68532 8.11031 4.50829C8.08797 4.41719 8.17391 4.29516 8.3286 4.16282C8.77203 3.78126 8.6225 3.33266 8.56063 3.19172C8.62594 3.06454 8.81672 2.65204 8.64828 2.20344Z" fill="#543930"/>
<path d="M8.55719 3.19344C8.56579 3.17797 8.41626 3.53547 7.7975 3.46501C7.54313 3.45985 7.17703 4.06829 7.54141 4.48079C7.86454 4.84516 8.3561 4.63891 8.3561 4.63891C8.3561 4.63891 8.28907 4.65782 8.1911 4.62173C8.1275 4.59766 8.10688 4.51516 8.10688 4.51173C8.08454 4.42063 8.17047 4.2986 8.32516 4.16626C8.7686 3.78126 8.61907 3.33266 8.55719 3.19344Z" fill="url(#paint9_radial_18_254)"/>
<path d="M8.64828 2.20344C8.53484 1.90094 8.32 1.64485 8.03469 1.4936C7.99344 1.47126 7.89203 1.41969 7.82157 1.40594C7.8525 1.54001 7.84735 1.68266 7.78719 1.82704C7.78547 1.83219 7.71672 2.04876 7.52594 2.22063C7.65828 2.41141 7.7236 2.64172 7.78375 2.8686C7.83703 3.06626 7.88688 3.28282 7.7975 3.46672C7.9161 3.46157 8.10516 3.49766 8.31485 3.40829C8.51594 3.32235 8.62422 3.09376 8.6775 2.88922C8.73422 2.66235 8.73078 2.42344 8.64828 2.20344Z" fill="url(#paint10_radial_18_254)"/>
<path d="M7.78547 1.82717C7.94188 1.4456 7.73735 1.0881 7.42282 0.845759C7.05328 0.562165 6.56172 0.531099 6.11657 0.596412C5.80032 0.642818 5.56828 0.788912 5.36203 0.917818C5.27438 0.972818 5.19016 1.0261 5.11282 1.06047C5.04922 1.08969 4.9375 1.11547 4.84641 1.08282C4.63844 1.01063 4.71235 0.696099 4.71235 0.696099C4.71235 0.696099 3.94578 0.833599 4.26203 1.57782C4.00422 1.6861 3.88047 1.95594 3.83063 2.21032C3.76188 2.55751 3.92688 2.89438 4.2586 3.04907C4.2586 3.04907 4.20188 2.48704 5.01141 2.53516C5.26235 2.55063 5.5236 2.5936 5.75906 2.50422C5.96703 2.42516 6.03922 2.31529 6.26953 2.33248C6.51875 2.35138 6.84875 2.45107 7.10485 2.4167C7.62391 2.34623 7.78375 1.83404 7.78547 1.82717Z" fill="url(#paint11_radial_18_254)"/>
<path d="M7.54141 4.48079C7.37813 4.30032 7.3386 4.00813 7.08078 3.84657C7.02922 4.01501 6.90375 4.17485 6.70953 4.23501C6.66485 4.24876 6.75594 5.01016 7.69438 5.02735C8.17906 5.03594 8.35781 4.63719 8.35781 4.63719C8.35781 4.63719 7.87141 4.84344 7.54141 4.48079Z" fill="url(#paint12_radial_18_254)"/>
</g>
<defs>
<linearGradient id="paint0_linear_18_254" x1="1.06907" y1="9.59447" x2="10.2572" y2="9.82855" gradientUnits="userSpaceOnUse">
<stop offset="0.598" stop-color="#FFCA28"/>
<stop offset="1" stop-color="#FFB300"/>
</linearGradient>
<linearGradient id="paint1_linear_18_254" x1="0.45606" y1="9.31932" x2="15.92" y2="14.0118" gradientUnits="userSpaceOnUse">
<stop stop-color="#F78C1F"/>
<stop offset="0.482" stop-color="#F47F12"/>
<stop offset="1" stop-color="#EF6C00"/>
</linearGradient>
<linearGradient id="paint2_linear_18_254" x1="13.5575" y1="5.67207" x2="3.79022" y2="8.87506" gradientUnits="userSpaceOnUse">
<stop offset="0.598" stop-color="#FFCA28"/>
<stop offset="1" stop-color="#FFB300"/>
</linearGradient>
<linearGradient id="paint3_linear_18_254" x1="11.2876" y1="16.6862" x2="4.79492" y2="9.00549" gradientUnits="userSpaceOnUse">
<stop offset="0.598" stop-color="#FFCA28"/>
<stop offset="1" stop-color="#FFB300"/>
</linearGradient>
<linearGradient id="paint4_linear_18_254" x1="11.2175" y1="5.38341" x2="1.72294" y2="11.3502" gradientUnits="userSpaceOnUse">
<stop offset="0.5" stop-color="#FFCA28"/>
<stop offset="1" stop-color="#FFB300"/>
</linearGradient>
<linearGradient id="paint5_linear_18_254" x1="4.77662" y1="17.8123" x2="15.5521" y2="9.47326" gradientUnits="userSpaceOnUse">
<stop stop-color="#FFB300"/>
<stop offset="0.138" stop-color="#FFCA28"/>
<stop offset="0.831" stop-color="#FFCA28"/>
</linearGradient>
<linearGradient id="paint6_linear_18_254" x1="11.0904" y1="6.15459" x2="2.56761" y2="11.5908" gradientUnits="userSpaceOnUse">
<stop offset="0.5" stop-color="#FFCA28"/>
<stop offset="1" stop-color="#FFB300"/>
</linearGradient>
<linearGradient id="paint7_linear_18_254" x1="5.3159" y1="6.6881" x2="16.7603" y2="11.6682" gradientUnits="userSpaceOnUse">
<stop offset="0.5" stop-color="#FFCA28"/>
<stop offset="1" stop-color="#FFB300"/>
</linearGradient>
<radialGradient id="paint8_radial_18_254" cx="0" cy="0" r="1" gradientUnits="userSpaceOnUse" gradientTransform="translate(8.59776 6.40675) scale(8.55384 12.2587)">
<stop stop-color="#FFB300"/>
<stop offset="1" stop-color="#FFCA28"/>
</radialGradient>
<radialGradient id="paint9_radial_18_254" cx="0" cy="0" r="1" gradientUnits="userSpaceOnUse" gradientTransform="translate(0.905869 12.2627) rotate(24.7718) scale(14.2447 23.053)">
<stop offset="0.45" stop-color="#6D4C41" stop-opacity="0"/>
<stop offset="1" stop-color="#6D4C41"/>
</radialGradient>
<radialGradient id="paint10_radial_18_254" cx="0" cy="0" r="1" gradientUnits="userSpaceOnUse" gradientTransform="translate(1.19836 14.5602) rotate(-5.51569) scale(14.6808 15.3436)">
<stop offset="0.45" stop-color="#6D4C41" stop-opacity="0"/>
<stop offset="1" stop-color="#6D4C41"/>
</radialGradient>
<radialGradient id="paint11_radial_18_254" cx="0" cy="0" r="1" gradientUnits="userSpaceOnUse" gradientTransform="translate(9.17722 15.1875) rotate(-17.5747) scale(9.30665 15.0202)">
<stop offset="0.45" stop-color="#6D4C41" stop-opacity="0"/>
<stop offset="1" stop-color="#6D4C41"/>
</radialGradient>
<radialGradient id="paint12_radial_18_254" cx="0" cy="0" r="1" gradientUnits="userSpaceOnUse" gradientTransform="translate(9.20864 7.08069) rotate(28.7766) scale(12.8802 13.7265)">
<stop offset="0.45" stop-color="#6D4C41" stop-opacity="0"/>
<stop offset="1" stop-color="#6D4C41"/>
</radialGradient>
</defs>
</svg>
