<svg width="22" height="20" viewBox="0 0 22 20" fill="none" xmlns="http://www.w3.org/2000/svg">
<g id="noto:stopwatch">
<path id="Vector" d="M11.7432 2.67593V4.40093H10.2462V2.67593H11.7432Z" fill="#607D8B"/>
<path id="Vector_2" d="M9.48578 1.06875C9.48578 0.959375 9.55281 0.857812 9.66109 0.809375C9.84844 0.723437 10.2334 0.625 11 0.625C11.7666 0.625 12.1516 0.723437 12.3406 0.809375C12.4489 0.857812 12.5159 0.959375 12.5159 1.06875V2.47656C12.5159 2.6875 12.2994 2.71719 12.1241 2.71719L9.78656 2.69219C9.51672 2.65781 9.48922 2.63594 9.48922 2.47656V1.06875H9.48578Z" fill="#B0BEC5"/>
<path id="Vector_3" d="M11 2.83125C11.8211 2.83125 12.4867 2.72212 12.4867 2.5875C12.4867 2.45288 11.8211 2.34375 11 2.34375C10.1789 2.34375 9.51331 2.45288 9.51331 2.5875C9.51331 2.72212 10.1789 2.83125 11 2.83125Z" fill="#607D8B"/>
<path id="Vector_4" d="M10.5548 1.97031C10.5376 2.04531 10.3434 2.09219 10.3004 1.92031C10.2472 1.70625 10.2695 1.21562 10.3056 0.979686C10.3245 0.854686 10.5617 0.812498 10.5789 1.04531C10.5926 1.23437 10.572 1.89531 10.5548 1.97031V1.97031Z" fill="#FBE9E7"/>
<path id="Vector_5" d="M10.0323 1.98438C10.0186 2.14375 9.71266 2.34375 9.69719 2.06719C9.67656 1.70157 9.69031 1.3625 9.70235 1.17188C9.7161 0.943754 10.0272 0.901566 10.0306 1.14375C10.0323 1.37032 10.0478 1.79532 10.0323 1.98438V1.98438Z" fill="#FBE9E7"/>
<path id="Vector_6" d="M11.4933 1.97031C11.5105 2.04531 11.7047 2.09219 11.7477 1.92031C11.8009 1.70625 11.7786 1.21562 11.7425 0.979686C11.7236 0.854686 11.4864 0.812498 11.4692 1.04531C11.4555 1.23437 11.4761 1.89531 11.4933 1.97031Z" fill="#78909C"/>
<path id="Vector_7" d="M11.9969 1.98438C12.0106 2.14375 12.3166 2.34375 12.332 2.06719C12.3526 1.70157 12.3389 1.3625 12.3269 1.17188C12.3131 0.943754 12.002 0.901566 11.9986 1.14375C11.9969 1.37032 11.9814 1.79532 11.9969 1.98438Z" fill="#607D8B"/>
<path id="Vector_8" d="M18.5694 5.70734L17.4425 6.73156L16.5529 5.92281L17.6796 4.89859L18.5694 5.70734Z" fill="#607D8B"/>
<path id="Vector_9" d="M18.2772 3.53281C18.312 3.50059 18.3561 3.47794 18.4045 3.46744C18.4528 3.45694 18.5034 3.45902 18.5505 3.47344C18.7189 3.525 19.0111 3.67344 19.4666 4.0875C19.9221 4.50156 20.0853 4.76719 20.1421 4.92031C20.1747 5.00781 20.1472 5.10312 20.0767 5.16875L19.1572 6.00469C19.0197 6.12969 18.8719 6.03125 18.7671 5.93594L17.3938 4.65781C17.2563 4.49219 17.2528 4.46406 17.3577 4.36875L18.2772 3.53281V3.53281Z" fill="#B0BEC5"/>
<path id="Vector_10" d="M19.0677 6.05669C19.1556 5.97676 18.8313 5.55234 18.3433 5.10874C17.8554 4.66514 17.3885 4.37033 17.3006 4.45026C17.2126 4.5302 17.5369 4.95461 18.0249 5.39822C18.5129 5.84182 18.9798 6.13663 19.0677 6.05669Z" fill="#607D8B"/>
<path id="Vector_11" d="M18.3236 4.64688C18.2634 4.68281 18.119 4.60469 18.205 4.47969C18.3133 4.32344 18.6467 4.04375 18.8237 3.92344C18.9165 3.85938 19.085 3.9625 18.944 4.10938C18.8272 4.22969 18.382 4.61094 18.3236 4.64688V4.64688Z" fill="#FBE9E7"/>
<path id="Vector_12" d="M18.0039 4.37187C17.8922 4.45937 17.5794 4.41249 17.7495 4.24062C17.9764 4.01093 18.2067 3.81874 18.3374 3.71093C18.4955 3.58281 18.7069 3.72656 18.5505 3.87187C18.4061 4.00781 18.1363 4.26874 18.0039 4.37187V4.37187Z" fill="#FBE9E7"/>
<path id="Vector_13" d="M11 19.375C15.8354 19.375 19.7553 15.8115 19.7553 11.4156C19.7553 7.01979 15.8354 3.45625 11 3.45625C6.16458 3.45625 2.24469 7.01979 2.24469 11.4156C2.24469 15.8115 6.16458 19.375 11 19.375Z" fill="#B0BEC5"/>
<path id="Vector_14" d="M11 17.8016C14.8795 17.8016 18.0245 14.9425 18.0245 11.4156C18.0245 7.88877 14.8795 5.02969 11 5.02969C7.12045 5.02969 3.97546 7.88877 3.97546 11.4156C3.97546 14.9425 7.12045 17.8016 11 17.8016Z" fill="#FAFAFA"/>
<g id="Group">
<path id="Vector_15" d="M11 6.73126C10.8608 6.73126 10.7474 6.62813 10.7474 6.50157V5.81407C10.7474 5.68751 10.8608 5.58438 11 5.58438C11.1393 5.58438 11.2527 5.68751 11.2527 5.81407V6.50157C11.2527 6.62969 11.1393 6.73126 11 6.73126Z" fill="#B2947C"/>
<path id="Vector_16" d="M11 17.2922C10.8608 17.2922 10.7474 17.1891 10.7474 17.0625V16.375C10.7474 16.2484 10.8608 16.1453 11 16.1453C11.1393 16.1453 11.2527 16.2484 11.2527 16.375V17.0625C11.2527 17.1891 11.1393 17.2922 11 17.2922Z" fill="#B2947C"/>
<path id="Vector_17" d="M17.1858 11.6688H16.4295C16.2903 11.6688 16.1769 11.5656 16.1769 11.4391C16.1769 11.3125 16.2903 11.2094 16.4295 11.2094H17.1858C17.325 11.2094 17.4384 11.3125 17.4384 11.4391C17.4384 11.5656 17.325 11.6688 17.1858 11.6688Z" fill="#B2947C"/>
<path id="Vector_18" d="M5.57049 11.6688H4.81424C4.67502 11.6688 4.56158 11.5656 4.56158 11.4391C4.56158 11.3125 4.67502 11.2094 4.81424 11.2094H5.57049C5.70971 11.2094 5.82315 11.3125 5.82315 11.4391C5.82315 11.5656 5.70971 11.6688 5.57049 11.6688Z" fill="#B2947C"/>
<path id="Vector_19" d="M11 6.73126C10.8608 6.73126 10.7474 6.62813 10.7474 6.50157V5.81407C10.7474 5.68751 10.8608 5.58438 11 5.58438C11.1393 5.58438 11.2527 5.68751 11.2527 5.81407V6.50157C11.2527 6.62969 11.1393 6.73126 11 6.73126Z" fill="#B2947C"/>
<path id="Vector_20" d="M11 17.2922C10.8608 17.2922 10.7474 17.1891 10.7474 17.0625V16.375C10.7474 16.2484 10.8608 16.1453 11 16.1453C11.1393 16.1453 11.2527 16.2484 11.2527 16.375V17.0625C11.2527 17.1891 11.1393 17.2922 11 17.2922Z" fill="#B2947C"/>
<path id="Vector_21" d="M8.06613 7.27814L7.688 6.68282C7.61753 6.57345 7.65878 6.43282 7.78082 6.36876C7.90113 6.3047 8.05582 6.3422 8.12628 6.45314L8.50441 7.04845C8.57488 7.15782 8.53363 7.29845 8.4116 7.36251C8.29128 7.42501 8.1366 7.38751 8.06613 7.27814Z" fill="#B2947C"/>
<path id="Vector_22" d="M13.8755 16.4234L13.4974 15.8281C13.4269 15.7188 13.4699 15.5781 13.5902 15.5141C13.7105 15.45 13.8652 15.4891 13.9357 15.5984L14.3138 16.1938C14.3843 16.3031 14.3413 16.4438 14.221 16.5078C14.0989 16.5719 13.9443 16.5344 13.8755 16.4234Z" fill="#B2947C"/>
<g id="Group_2">
<path id="Vector_23" d="M8.06613 7.27814L7.688 6.68282C7.61753 6.57345 7.65878 6.43282 7.78082 6.36876C7.90113 6.3047 8.05582 6.3422 8.12628 6.45314L8.50441 7.04845C8.57488 7.15782 8.53363 7.29845 8.4116 7.36251C8.29128 7.42501 8.1366 7.38751 8.06613 7.27814Z" fill="#B2947C"/>
<path id="Vector_24" d="M13.8755 16.4234L13.4974 15.8281C13.4269 15.7188 13.4699 15.5781 13.5902 15.5141C13.7105 15.45 13.8652 15.4891 13.9357 15.5984L14.3138 16.1938C14.3843 16.3031 14.3413 16.4438 14.221 16.5078C14.0989 16.5719 13.9443 16.5344 13.8755 16.4234Z" fill="#B2947C"/>
</g>
<g id="Group_3">
<path id="Vector_25" d="M6.17207 9.16875L5.51723 8.825C5.39691 8.76094 5.35566 8.62188 5.42441 8.51094C5.49488 8.40156 5.64785 8.36406 5.76988 8.42656L6.42473 8.77031C6.54504 8.83438 6.58629 8.97344 6.51754 9.08438C6.44707 9.19531 6.29238 9.23281 6.17207 9.16875Z" fill="#B2947C"/>
<path id="Vector_26" d="M16.2319 14.45L15.577 14.1063C15.4567 14.0422 15.4155 13.9031 15.4842 13.7922C15.5547 13.6828 15.7077 13.6453 15.8297 13.7078L16.4845 14.0516C16.6049 14.1156 16.6461 14.2547 16.5774 14.3656C16.5069 14.475 16.3522 14.5125 16.2319 14.45Z" fill="#B2947C"/>
</g>
<g id="Group_4">
<path id="Vector_27" d="M13.5885 7.3625C13.4681 7.29844 13.4269 7.15937 13.4956 7.04844L13.8738 6.45312C13.9442 6.34375 14.0972 6.30625 14.2192 6.36875C14.3395 6.43281 14.3808 6.57187 14.312 6.68281L13.9339 7.27812C13.8635 7.3875 13.7088 7.425 13.5885 7.3625Z" fill="#B2947C"/>
<path id="Vector_28" d="M7.78078 16.5078C7.66046 16.4437 7.61921 16.3047 7.68796 16.1937L8.06609 15.5984C8.13656 15.4891 8.28953 15.4516 8.41156 15.5141C8.53187 15.5781 8.57312 15.7172 8.50437 15.8281L8.12624 16.4234C8.05578 16.5344 7.90109 16.5719 7.78078 16.5078Z" fill="#B2947C"/>
</g>
<g id="Group_5">
<path id="Vector_29" d="M15.4842 9.08594C15.4137 8.97657 15.455 8.83594 15.577 8.77188L16.2319 8.42813C16.3522 8.36407 16.5069 8.40313 16.5773 8.5125C16.6478 8.62188 16.6048 8.7625 16.4845 8.82657L15.8297 9.17032C15.7076 9.23282 15.553 9.19532 15.4842 9.08594Z" fill="#B2947C"/>
<path id="Vector_30" d="M5.42438 14.3656C5.35391 14.2563 5.39688 14.1156 5.5172 14.0516L6.17204 13.7078C6.29235 13.6438 6.44704 13.6828 6.51751 13.7922C6.58798 13.9016 6.54501 14.0422 6.4247 14.1063L5.76985 14.45C5.64782 14.5125 5.49313 14.475 5.42438 14.3656V14.3656Z" fill="#B2947C"/>
</g>
</g>
<g id="Group_6">
<path id="Vector_31" opacity="0.42" d="M11 10.2984C11.9293 10.2984 12.6826 9.61357 12.6826 8.76875C12.6826 7.92392 11.9293 7.23906 11 7.23906C10.0707 7.23906 9.31732 7.92392 9.31732 8.76875C9.31732 9.61357 10.0707 10.2984 11 10.2984Z" fill="#82AEC0"/>
</g>
<path id="Vector_32" d="M11.2578 6.03593C11.2578 6.03593 11.287 5.52499 10.9931 5.52499C10.6992 5.52499 10.7284 6.03593 10.7284 6.03593L10.5291 11.4391H11.4744L11.2578 6.03593Z" fill="#563428"/>
<path id="Vector_33" d="M11 12.0734C11.3901 12.0734 11.7064 11.7859 11.7064 11.4313C11.7064 11.0766 11.3901 10.7891 11 10.7891C10.6098 10.7891 10.2936 11.0766 10.2936 11.4313C10.2936 11.7859 10.6098 12.0734 11 12.0734Z" fill="#563428"/>
<path id="Vector_34" opacity="0.64" d="M8.94438 4.90625C8.00766 5.15312 6.69454 5.53125 5.29204 7.05625C3.90501 8.56406 3.61798 10.3156 3.53032 11.525C3.53032 11.525 2.72938 12.4359 2.69157 12.2656C2.38907 10.9453 2.99923 7.99531 4.59423 6.43594C6.45048 4.62031 8.86532 3.97656 9.73673 3.85625C9.88798 3.83594 9.2297 4.83125 8.94438 4.90625V4.90625Z" fill="#ECEFF1"/>
</g>
</svg>
