<svg width="145" height="91" viewBox="0 0 145 91" fill="none" xmlns="http://www.w3.org/2000/svg">
<g id="Logo">
<path id="TrackActive" d="M30.268 75V74.334L31.816 74.1C32.056 74.064 32.176 73.932 32.176 73.704V65.496H31.402C31.102 65.496 30.832 65.508 30.592 65.532C30.352 65.556 30.172 65.586 30.052 65.622C29.848 65.694 29.728 65.832 29.692 66.036L29.26 67.872H28.486C28.438 67.32 28.42 66.792 28.432 66.288C28.444 65.784 28.48 65.274 28.54 64.758H37.252C37.3 65.274 37.324 65.784 37.324 66.288C37.336 66.792 37.318 67.32 37.27 67.872H36.496L36.064 66.018C36.052 65.91 36.016 65.826 35.956 65.766C35.896 65.706 35.824 65.658 35.74 65.622C35.452 65.538 35.008 65.496 34.408 65.496H33.616V73.704C33.616 73.932 33.736 74.064 33.976 74.1L35.506 74.334V75H30.268ZM40.6534 69.222C40.8094 68.934 41.0254 68.646 41.3014 68.358C41.5894 68.058 41.9134 67.812 42.2734 67.62C42.6454 67.428 43.0234 67.332 43.4074 67.332C43.5394 67.332 43.6894 67.35 43.8574 67.386C44.0374 67.422 44.1874 67.47 44.3074 67.53C44.3314 67.89 44.3254 68.304 44.2894 68.772C44.2654 69.228 44.2114 69.648 44.1274 70.032H43.4614L43.2634 69.006C43.2274 68.862 43.1734 68.76 43.1014 68.7C43.0414 68.64 42.9454 68.61 42.8134 68.61C42.4654 68.61 42.1054 68.7 41.7334 68.88C41.3614 69.048 41.0254 69.318 40.7254 69.69L40.6534 69.222ZM40.9774 69.204V73.794C40.9774 74.046 41.1034 74.184 41.3554 74.208L42.6694 74.352V75H38.4214V74.334L39.2134 74.208C39.4534 74.172 39.5734 74.034 39.5734 73.794V68.916C39.5734 68.652 39.4534 68.502 39.2134 68.466L38.3134 68.358V67.71C38.6614 67.602 39.0334 67.518 39.4294 67.458C39.8374 67.398 40.2154 67.362 40.5634 67.35L40.7794 67.566L40.9774 69.204ZM47.3298 75.144C46.7298 75.144 46.2258 74.988 45.8178 74.676C45.4218 74.364 45.2238 73.914 45.2238 73.326C45.2238 72.822 45.3678 72.426 45.6558 72.138C45.9558 71.838 46.3278 71.622 46.7718 71.49C47.2158 71.358 47.6658 71.274 48.1218 71.238L49.8857 71.094V71.778L48.3558 71.922C47.8278 71.958 47.4198 72.078 47.1318 72.282C46.8558 72.486 46.7178 72.792 46.7178 73.2C46.7178 73.524 46.8078 73.776 46.9878 73.956C47.1798 74.136 47.4618 74.226 47.8338 74.226C48.2298 74.226 48.6198 74.136 49.0038 73.956C49.3998 73.776 49.6998 73.554 49.9038 73.29L50.0658 73.632C49.8138 74.076 49.4418 74.442 48.9498 74.73C48.4698 75.006 47.9298 75.144 47.3298 75.144ZM45.4398 68.916C45.6198 68.412 45.9798 68.028 46.5198 67.764C47.0598 67.5 47.6778 67.368 48.3738 67.368C49.2498 67.368 49.9038 67.59 50.3358 68.034C50.7678 68.466 50.9838 69.132 50.9838 70.032V73.758C50.9838 74.022 51.1158 74.166 51.3798 74.19L52.1178 74.262V74.874C51.9978 74.91 51.8118 74.958 51.5598 75.018C51.3078 75.078 51.0738 75.108 50.8578 75.108C50.4978 75.108 50.2098 75.006 49.9938 74.802C49.7898 74.598 49.6638 74.298 49.6158 73.902V70.23C49.6158 69.558 49.4778 69.09 49.2018 68.826C48.9378 68.55 48.5298 68.412 47.9778 68.412C47.5698 68.412 47.1798 68.478 46.8078 68.61C46.4358 68.742 46.0938 68.958 45.7817 69.258L45.4398 68.916ZM53.2239 71.382C53.2239 70.602 53.3619 69.912 53.6379 69.312C53.9139 68.7 54.3159 68.22 54.8439 67.872C55.3839 67.512 56.0499 67.332 56.8419 67.332C57.2619 67.332 57.6819 67.38 58.1019 67.476C58.5219 67.572 58.8639 67.686 59.1279 67.818C59.1519 68.166 59.1459 68.538 59.1099 68.934C59.0859 69.318 59.0499 69.678 59.0019 70.014H58.2819L57.9939 68.934C57.9699 68.802 57.9399 68.694 57.9039 68.61C57.8679 68.526 57.8079 68.454 57.7239 68.394C57.6159 68.298 57.4719 68.226 57.2919 68.178C57.1119 68.118 56.9139 68.088 56.6979 68.088C56.0859 68.088 55.6119 68.334 55.2759 68.826C54.9399 69.318 54.7719 70.062 54.7719 71.058C54.7719 72.126 54.9579 72.918 55.3299 73.434C55.7139 73.95 56.2539 74.208 56.9499 74.208C57.3459 74.208 57.7059 74.13 58.0299 73.974C58.3539 73.818 58.6179 73.632 58.8219 73.416L59.2179 73.758C59.0019 74.202 58.6599 74.55 58.1919 74.802C57.7359 75.054 57.1839 75.18 56.5359 75.18C55.8039 75.18 55.1919 75.018 54.6999 74.694C54.2079 74.358 53.8359 73.908 53.5839 73.344C53.3439 72.768 53.2239 72.114 53.2239 71.382ZM60.3547 75V74.334L61.1647 74.208C61.3927 74.172 61.5067 74.034 61.5067 73.794V64.74C61.5067 64.512 61.3867 64.38 61.1467 64.344L60.1927 64.2V63.606C60.5647 63.498 60.9787 63.414 61.4347 63.354C61.8907 63.282 62.3107 63.24 62.6947 63.228L62.9107 63.426V73.794C62.9107 74.034 63.0307 74.172 63.2707 74.208L64.0627 74.334V75H60.3547ZM66.4747 75C66.2947 75 66.1327 74.898 65.9887 74.694C65.8567 74.478 65.7007 74.202 65.5207 73.866L64.7827 72.462C64.6267 72.186 64.4827 71.928 64.3507 71.688C64.2187 71.448 64.0807 71.232 63.9367 71.04L64.8907 70.122C65.0707 70.35 65.2267 70.566 65.3587 70.77C65.4907 70.962 65.6347 71.196 65.7907 71.472L67.1587 73.74C67.2187 73.872 67.2907 73.968 67.3747 74.028C67.4587 74.088 67.5487 74.13 67.6447 74.154L68.4727 74.334V75H66.4747ZM62.6767 72.84L62.5867 71.922L66.1327 68.052L66.2227 68.43L64.5487 68.142V67.512H68.1127V68.142L67.3387 68.322C67.1947 68.358 67.0807 68.394 66.9967 68.43C66.9247 68.454 66.8467 68.502 66.7627 68.574L62.6767 72.84ZM71.2498 71.076H75.6418L75.9478 71.868H70.9978L71.2498 71.076ZM77.6578 73.794C77.7178 73.974 77.8498 74.088 78.0538 74.136L78.8098 74.334V75H74.9218V74.334L76.2358 74.082L73.1758 65.316H73.6618L70.7998 74.082L72.0958 74.334V75H68.6938V74.334L69.4858 74.136C69.6898 74.088 69.8218 73.974 69.8818 73.794L72.9958 64.722H74.3998L77.6578 73.794ZM79.345 71.382C79.345 70.602 79.483 69.912 79.759 69.312C80.035 68.7 80.437 68.22 80.965 67.872C81.505 67.512 82.171 67.332 82.963 67.332C83.383 67.332 83.803 67.38 84.223 67.476C84.643 67.572 84.985 67.686 85.249 67.818C85.273 68.166 85.267 68.538 85.231 68.934C85.207 69.318 85.171 69.678 85.123 70.014H84.403L84.115 68.934C84.091 68.802 84.061 68.694 84.025 68.61C83.989 68.526 83.929 68.454 83.845 68.394C83.737 68.298 83.593 68.226 83.413 68.178C83.233 68.118 83.035 68.088 82.819 68.088C82.207 68.088 81.733 68.334 81.397 68.826C81.061 69.318 80.893 70.062 80.893 71.058C80.893 72.126 81.079 72.918 81.451 73.434C81.835 73.95 82.375 74.208 83.071 74.208C83.467 74.208 83.827 74.13 84.151 73.974C84.475 73.818 84.739 73.632 84.943 73.416L85.339 73.758C85.123 74.202 84.781 74.55 84.313 74.802C83.857 75.054 83.305 75.18 82.657 75.18C81.925 75.18 81.313 75.018 80.821 74.694C80.329 74.358 79.957 73.908 79.705 73.344C79.465 72.768 79.345 72.114 79.345 71.382ZM87.5558 68.466L86.4218 68.322V67.71L87.2498 67.584C87.3698 67.56 87.4598 67.524 87.5198 67.476C87.5798 67.416 87.6218 67.332 87.6458 67.224L88.1318 65.334H88.9418L88.9598 67.512H91.4078V68.412H88.9778V72.678C88.9778 73.254 89.0678 73.638 89.2478 73.83C89.4398 74.01 89.7038 74.1 90.0398 74.1C90.3158 74.1 90.5678 74.052 90.7958 73.956C91.0358 73.86 91.2398 73.716 91.4078 73.524L91.8038 73.902C91.6118 74.31 91.3118 74.616 90.9038 74.82C90.5078 75.024 90.0578 75.126 89.5538 75.126C89.1938 75.126 88.8578 75.072 88.5458 74.964C88.2458 74.856 88.0058 74.658 87.8258 74.37C87.6458 74.082 87.5558 73.674 87.5558 73.146V68.466ZM95.3118 73.794C95.3118 74.034 95.4318 74.172 95.6718 74.208L96.4638 74.334V75H92.7558V74.334L93.5478 74.208C93.7878 74.172 93.9078 74.034 93.9078 73.794V68.88C93.9078 68.64 93.7938 68.508 93.5658 68.484L92.6478 68.358V67.71C93.0318 67.59 93.4398 67.506 93.8718 67.458C94.3158 67.398 94.7298 67.362 95.1138 67.35L95.3118 67.566V73.794ZM95.4198 65.334C95.4198 65.61 95.3298 65.838 95.1498 66.018C94.9698 66.186 94.7358 66.27 94.4478 66.27C94.1598 66.27 93.9258 66.186 93.7458 66.018C93.5658 65.838 93.4758 65.61 93.4758 65.334C93.4758 65.046 93.5658 64.818 93.7458 64.65C93.9258 64.47 94.1598 64.38 94.4478 64.38C94.7358 64.38 94.9698 64.47 95.1498 64.65C95.3298 64.818 95.4198 65.046 95.4198 65.334ZM103.082 68.358L101.948 68.16V67.512H104.792V68.16L104.306 68.304C104.102 68.364 103.97 68.472 103.91 68.628L101.588 75.108H100.778L103.082 68.358ZM101.3 75.108H100.364L97.8435 68.646C97.7595 68.466 97.6335 68.352 97.4655 68.304L96.9795 68.16V67.512H100.472V68.16L99.3375 68.358L101.534 74.514L101.3 75.108ZM105.343 71.364C105.343 70.104 105.655 69.12 106.279 68.412C106.915 67.692 107.767 67.332 108.835 67.332C109.651 67.332 110.311 67.554 110.815 67.998C111.319 68.442 111.571 69.09 111.571 69.942C111.571 70.062 111.565 70.212 111.553 70.392C111.541 70.56 111.523 70.716 111.499 70.86H106.369V70.176H110.149C110.161 70.116 110.167 70.062 110.167 70.014C110.179 69.966 110.185 69.906 110.185 69.834C110.185 69.318 110.047 68.898 109.771 68.574C109.507 68.238 109.129 68.07 108.637 68.07C108.073 68.07 107.629 68.304 107.305 68.772C106.981 69.24 106.819 69.996 106.819 71.04C106.819 71.832 106.915 72.462 107.107 72.93C107.299 73.386 107.557 73.716 107.881 73.92C108.217 74.112 108.601 74.208 109.033 74.208C109.453 74.208 109.843 74.112 110.203 73.92C110.575 73.728 110.869 73.464 111.085 73.128L111.535 73.398C111.379 73.938 111.043 74.37 110.527 74.694C110.023 75.018 109.393 75.18 108.637 75.18C107.893 75.18 107.275 75.018 106.783 74.694C106.303 74.358 105.943 73.908 105.703 73.344C105.463 72.768 105.343 72.108 105.343 71.364Z" fill="black"/>
<g id="Logo Shapes 58">
<g id="Group">
<path id="Vector" d="M47.0229 26.6804C47.0229 26.5704 47.0303 26.4543 47.0303 26.3503C47.0378 26.2771 47.0378 26.2111 47.0453 26.1379C47.0602 25.8386 47.0901 25.5393 47.1205 25.2405V25.1739C47.1429 25.0408 47.1579 24.9016 47.1728 24.7684C47.1803 24.7216 47.1803 24.682 47.1877 24.6353C47.2182 24.4361 47.2499 24.2369 47.2854 24.0372C47.2849 24.0336 47.2853 24.03 47.2866 24.0265C47.2879 24.0231 47.29 24.02 47.2929 24.0174C47.3458 23.6873 47.4136 23.3571 47.4888 23.0336C47.4917 23.031 47.4938 23.0279 47.4951 23.0245C47.4964 23.021 47.4968 23.0174 47.4963 23.0138C47.5262 22.8674 47.5635 22.7277 47.6014 22.5819C47.7066 22.1896 47.8192 21.7973 47.9467 21.4121C48.0369 21.1458 48.1271 20.8801 48.2323 20.6143C48.3001 20.7937 48.3679 20.9731 48.4432 21.1458C48.4954 21.2724 48.5483 21.3984 48.6006 21.5183V21.5249C48.6086 21.551 48.6214 21.5757 48.6385 21.5981C48.6534 21.6245 48.6609 21.6531 48.6758 21.6779C48.7511 21.8572 48.8339 22.03 48.9247 22.2028C48.9552 22.2755 48.9903 22.3466 49.0298 22.4157V22.4223C49.0394 22.4434 49.0519 22.4634 49.0671 22.4817L49.0746 22.4883C49.0767 22.5148 49.0873 22.5402 49.1051 22.5615C49.1881 22.7277 49.2783 22.8938 49.3757 23.06C49.3951 23.1013 49.4176 23.1413 49.4429 23.18C49.4609 23.2144 49.4817 23.2477 49.5051 23.2795C49.5505 23.3725 49.6028 23.4589 49.6557 23.5453C49.7229 23.652 49.7905 23.7584 49.8585 23.8644C49.8879 23.9191 49.9205 23.9723 49.9562 24.024C49.9487 24.0306 49.9562 24.0306 49.9562 24.0306C49.986 24.0856 50.024 24.1368 50.0613 24.1901C50.1857 24.4031 50.3319 24.6089 50.4819 24.8152C50.6548 25.0676 50.8352 25.3135 51.0231 25.553C51.0584 25.591 51.0911 25.6309 51.1208 25.6724C51.2937 25.8925 51.4741 26.1126 51.6546 26.3239C51.8126 26.5098 51.9774 26.6892 52.1429 26.8686C52.2256 26.9621 52.3084 27.0551 52.3986 27.1437C52.4509 27.2031 52.5112 27.2631 52.5716 27.323C52.7066 27.4694 52.8571 27.6152 53.007 27.7632C53.0327 27.7913 53.0604 27.818 53.0898 27.843C53.3007 28.0493 53.5184 28.2485 53.7436 28.4482L69.9996 42.8319L86.2624 28.4482C86.5859 28.1627 86.8939 27.87 87.1956 27.5778C87.3686 27.405 87.5415 27.2257 87.707 27.0463C87.7692 26.9863 87.8196 26.9263 87.88 26.8664C88.0828 26.6463 88.2781 26.4213 88.466 26.1951C88.5189 26.1285 88.5711 26.0691 88.624 26.0025C88.7217 25.8897 88.8106 25.7698 88.9096 25.6504C88.9848 25.5574 89.052 25.4639 89.1198 25.3709C89.1574 25.3283 89.1924 25.284 89.225 25.2383C89.4203 24.9725 89.6157 24.6996 89.7961 24.4273C89.8863 24.2941 89.969 24.1681 90.0518 24.035C90.0647 24.0083 90.0823 23.9836 90.104 23.9618C90.1868 23.8292 90.2621 23.6895 90.3448 23.5563C90.4499 23.3835 90.5476 23.2108 90.6453 23.038C90.6648 23.0088 90.6801 22.9776 90.6907 22.945C90.7185 22.8996 90.7436 22.853 90.766 22.8053C90.7839 22.7801 90.7989 22.7534 90.8108 22.7255C90.8406 22.6705 90.873 22.6259 90.8935 22.5797C90.9613 22.4531 91.0179 22.3337 91.0739 22.2072C91.134 22.1015 91.1868 21.9928 91.2319 21.8815C91.2543 21.8418 91.2693 21.8083 91.2941 21.7687C91.2941 21.7621 91.3016 21.7555 91.3016 21.7489C91.4746 21.3698 91.6326 20.9973 91.7676 20.6187C91.8727 20.8845 91.9629 21.1502 92.0531 21.4165C92.1153 21.5959 92.1738 21.7753 92.2261 21.9546C92.2783 22.134 92.3387 22.3266 92.3841 22.5197C92.4438 22.7321 92.4963 22.9446 92.5415 23.1574C92.5944 23.3703 92.6398 23.5833 92.6771 23.8022C92.7144 24.0212 92.7599 24.2347 92.7897 24.4537C92.8196 24.6331 92.8426 24.8196 92.865 24.999C92.8725 25.0655 92.8799 25.125 92.8874 25.1915C92.9098 25.3775 92.9253 25.5706 92.9403 25.7566V25.7632C92.9627 25.9624 92.9701 26.1555 92.9776 26.3547C92.9925 26.6298 93 26.8933 93 27.1657C93 27.5508 92.9851 27.9431 92.9552 28.3288C92.6499 33.3155 90.267 38.0253 86.2662 41.5493L70.0258 55.906L70.0034 55.9258L53.7474 41.5493C52.5542 40.4984 51.4981 39.3323 50.5988 38.0731C50.5988 38.0659 50.5913 38.0599 50.5913 38.0527C48.4879 35.1365 47.2712 31.7894 47.0589 28.3354C47.0148 27.777 46.9999 27.2323 47.0229 26.6804Z" fill="url(#paint0_linear_18_255)"/>
<path id="Vector_2" d="M54.0651 12.5097C57.8266 9.30514 62.7109 7.33028 67.9122 6.91097C73.1135 6.49166 78.3211 7.65296 82.6757 10.2033C82.7056 10.2165 82.7286 10.2297 82.7435 10.2368C83.8832 10.9082 84.9522 11.6689 85.9375 12.5097L85.3153 13.0599L69.9995 26.5991L54.6007 12.9818V12.9752L54.5485 12.9285L54.0651 12.5097Z" fill="url(#paint1_linear_18_255)"/>
<path id="Vector_3" d="M48.2327 20.6121C48.9929 18.6123 50.1039 16.7305 51.5249 15.0357C51.6599 14.8762 51.7955 14.7166 51.9455 14.557C52.0811 14.4041 52.2235 14.2511 52.3666 14.0982C52.6597 13.7994 52.9527 13.5001 53.2681 13.2074C53.4186 13.0616 53.5791 12.9218 53.7415 12.7755C53.8395 12.6803 53.9451 12.5914 54.0576 12.5097H54.065L54.5459 12.9284L54.5982 12.9752V12.9818L69.9975 26.6006L85.3134 13.0616L85.9355 12.5114C86.0485 12.5948 86.1562 12.6836 86.2584 12.7771C88.7551 14.9763 90.6386 17.6594 91.7598 20.6138C91.6248 20.9923 91.4668 21.3648 91.2939 21.7439C91.2939 21.7505 91.2864 21.7571 91.2864 21.7637C91.264 21.8033 91.2491 21.8369 91.2242 21.8765C91.1791 21.9879 91.1263 22.0966 91.0662 22.2022C90.9459 22.448 90.8182 22.694 90.6829 22.9401C90.5778 23.1458 90.4571 23.3522 90.337 23.5514C90.1641 23.8441 89.9837 24.1362 89.7883 24.4223C89.6079 24.6947 89.4151 24.9676 89.2172 25.2333C89.2023 25.2466 89.1948 25.2664 89.1799 25.2796C88.9995 25.5255 88.8067 25.7715 88.6014 26.0174C88.556 26.0774 88.5111 26.1307 88.4582 26.1902C88.2554 26.4295 88.0452 26.6689 87.8361 26.9016L87.8212 26.9148C87.6184 27.1349 87.4079 27.355 87.1897 27.575C86.8893 27.8672 86.5813 28.1599 86.2566 28.4455L69.9937 42.8291L53.7378 28.4455C51.8144 26.7468 50.2471 24.7598 49.1086 22.5769C49.086 22.549 49.0705 22.5171 49.0632 22.4834C49.0479 22.4651 49.0354 22.4451 49.0259 22.424V22.4174C48.9863 22.3482 48.9512 22.2771 48.9207 22.2045C48.8305 22.0317 48.7478 21.8589 48.6719 21.6795C48.6426 21.6303 48.6174 21.5791 48.5966 21.5266V21.52C48.5443 21.4 48.4915 21.274 48.4392 21.1475C48.3683 20.9709 48.3005 20.7915 48.2327 20.6121Z" fill="url(#paint2_linear_18_255)"/>
<g id="Group_2" style="mix-blend-mode:multiply" opacity="0.06">
<g id="Vector_4" style="mix-blend-mode:multiply" opacity="0.06">
<path d="M69.9971 26.6L85.9396 12.5058C86.0497 12.5894 86.1598 12.6869 86.2618 12.7771C87.0615 13.4801 87.7999 14.2355 88.471 15.0368L69.9971 26.6Z" fill="black"/>
</g>
</g>
<g id="Group_3" style="mix-blend-mode:multiply" opacity="0.06">
<g id="Vector_5" style="mix-blend-mode:multiply" opacity="0.06">
<path d="M69.9971 42.8253L86.2599 28.4416C86.5835 28.1561 86.8914 27.8634 87.1931 27.5712C87.3661 27.3918 87.539 27.2191 87.7045 27.0397C87.7667 26.9797 87.8171 26.9198 87.8775 26.8598C88.0803 26.6397 88.2756 26.4147 88.4635 26.1885C88.5164 26.1219 88.5686 26.0625 88.6215 25.9959C88.7192 25.8832 88.8169 25.7632 88.9071 25.6438C88.9823 25.5508 89.0495 25.4573 89.1173 25.3643C89.1549 25.3217 89.19 25.2774 89.2225 25.2317C89.4178 24.966 89.6132 24.693 89.7936 24.4207C89.8838 24.2941 89.9665 24.1615 90.0493 24.0284C90.0622 24.0017 90.0799 23.977 90.1015 23.9552C90.1843 23.8226 90.267 23.6829 90.3423 23.5497C90.4474 23.3769 90.5451 23.2042 90.6428 23.0314C90.6624 23.0022 90.6776 22.971 90.6882 22.9384C90.7161 22.893 90.7412 22.8464 90.7635 22.7987C90.7815 22.7735 90.7965 22.7468 90.8083 22.7189C90.8985 22.5461 90.9887 22.3734 91.0714 22.2006C91.1316 22.0949 91.1843 21.9862 91.2294 21.8749C91.4248 21.4562 91.6027 21.0374 91.7626 20.6094C91.8677 20.8751 91.9579 21.1409 92.0481 21.4072C92.1104 21.5866 92.1688 21.7659 92.2211 21.9453C92.2734 22.1247 92.3337 22.3172 92.3791 22.5104C92.4388 22.7227 92.4913 22.9353 92.5365 23.1481C92.5894 23.361 92.6348 23.5739 92.6721 23.7929C92.7095 24.0119 92.7549 24.2254 92.7847 24.4443C92.8146 24.6237 92.8376 24.8102 92.86 24.9896C92.8675 25.0562 92.8749 25.1156 92.8824 25.1822C92.9048 25.3682 92.9204 25.5613 92.9353 25.7473V25.7539C92.9577 25.953 92.9651 26.1462 92.9726 26.3453C92.9875 26.6204 92.995 26.884 92.995 27.1563C92.995 27.5415 92.9801 27.9338 92.9502 28.3195L92.7014 28.4791L73.2589 40.7647L69.9971 42.8253Z" fill="black"/>
</g>
</g>
<g id="Group_4" style="mix-blend-mode:multiply" opacity="0.06">
<g id="Vector_6" style="mix-blend-mode:multiply" opacity="0.06">
<path d="M51.525 15.0368C51.66 14.8773 51.7956 14.7177 51.9455 14.5581C52.0811 14.4052 52.2236 14.2522 52.3667 14.0993C52.6597 13.8005 52.9527 13.5012 53.2681 13.2085C53.4187 13.0627 53.5792 12.9163 53.7341 12.7766H53.7415C53.8395 12.6813 53.9452 12.5925 54.0576 12.5108H54.0651L54.5907 12.9829C54.5907 12.9763 54.5982 12.9829 54.5982 12.9829C54.6088 12.9975 54.6216 13.0108 54.6362 13.0225L69.9975 26.6017L66.8938 24.6611L52.1334 15.4176L51.525 15.0368Z" fill="black"/>
</g>
</g>
<g id="Group_5" style="mix-blend-mode:multiply" opacity="0.06">
<g id="Vector_7" style="mix-blend-mode:multiply" opacity="0.06">
<path d="M47.6053 22.5747C47.7073 22.1835 47.8181 21.7934 47.9469 21.4072C48.0371 21.1409 48.1273 20.8751 48.2324 20.6094C48.3002 20.7887 48.368 20.9681 48.4433 21.1409C48.4956 21.2674 48.5485 21.3934 48.6082 21.5134C48.6237 21.5684 48.6536 21.6196 48.676 21.6729C48.7513 21.8523 48.834 22.0251 48.9248 22.1978C48.9553 22.2705 48.9904 22.3416 49.03 22.4108C49.0378 22.4346 49.0505 22.4569 49.0673 22.4768C49.0746 22.5105 49.0901 22.5424 49.1127 22.5703C50.2529 24.7507 51.8173 26.7371 53.7344 28.4389H53.7419L69.9979 42.8225L66.7734 40.7818L47.5568 28.6452L47.0535 28.3261L47.046 28.3195C47.0155 27.9343 47.0006 27.542 47.0006 27.1563C47.0006 26.9968 47.0162 26.8372 47.0205 26.6777C47.0205 26.5676 47.0292 26.4576 47.0342 26.3437C47.0516 25.9585 47.0803 25.5789 47.1226 25.1965C47.1431 25.0072 47.1649 24.8185 47.1916 24.6298C47.2202 24.4306 47.2482 24.2314 47.2837 24.0328C47.3459 23.6911 47.4143 23.3511 47.494 23.0116C47.5282 22.868 47.5667 22.7227 47.6053 22.5747Z" fill="black"/>
</g>
</g>
<g id="Group_6" style="mix-blend-mode:multiply" opacity="0.14">
<g id="Vector_8" style="mix-blend-mode:multiply" opacity="0.14">
<path d="M54.5419 12.9311L69.9972 26.6L85.3108 13.0648C84.1393 14.2885 82.9131 15.4566 81.7105 16.6522C80.4918 17.8274 79.2656 19.0027 78.0238 20.1565C76.7895 21.3246 75.5235 22.4646 74.2737 23.6118L70.4688 27.0187L69.9972 27.4429L69.5257 27.0187L65.6891 23.5771C64.4237 22.4162 63.1502 21.269 61.9004 20.0943C60.6505 18.9196 59.4081 17.7438 58.1739 16.5553C56.9713 15.3509 55.7289 14.1685 54.5419 12.9311Z" fill="black"/>
</g>
</g>
<g id="Group_7" style="mix-blend-mode:multiply" opacity="0.14">
<g id="Vector_9" style="mix-blend-mode:multiply" opacity="0.14">
<path d="M49.031 22.4217C50.1764 24.6638 51.7718 26.7038 53.7398 28.4427L69.997 42.8274L86.2617 28.4427C88.4242 26.5347 90.1325 24.2627 91.2853 21.7609C90.3886 24.0156 89.0293 26.1047 87.2758 27.9233C86.836 28.3822 86.3563 28.813 85.9003 29.2438L84.5248 30.5368L81.7339 33.1024C78.0236 36.5138 74.2498 39.8882 70.4686 43.2461L69.997 43.6632L69.5254 43.2461L64.0147 38.324C62.1987 36.6689 60.3592 35.0282 58.5588 33.3528L55.8444 30.8548L54.5 29.5965C54.0596 29.1723 53.5961 28.7552 53.1557 28.331C51.3923 26.5952 49.9953 24.5937 49.031 22.4217Z" fill="black"/>
</g>
</g>
<g id="Group_8" style="mix-blend-mode:screen" opacity="0.3">
<g id="Vector_10" style="mix-blend-mode:screen" opacity="0.3">
<path d="M54.5419 12.9311C55.9411 13.9809 57.2793 15.0769 58.6374 16.1432C59.9816 17.2348 61.3154 18.3335 62.6388 19.439C63.9677 20.5444 65.2648 21.6707 66.5775 22.7898L69.9992 25.7725L73.3791 22.8178C74.6855 21.7125 75.9659 20.5928 77.2866 19.5083C78.5993 18.4029 79.92 17.3251 81.2564 16.2406C82.6082 15.1837 83.9315 14.0992 85.3126 13.0631L69.9992 26.5983L54.5419 12.9311Z" fill="white"/>
</g>
</g>
<g id="Group_9" style="mix-blend-mode:screen" opacity="0.3">
<g id="Vector_11" style="mix-blend-mode:screen" opacity="0.3">
<path d="M49.031 22.4217C50.2121 24.4661 51.763 26.3261 53.6223 27.9282C55.5085 29.5134 57.4171 31.0986 59.2897 32.7046C61.1766 34.3036 63.0318 35.9234 64.9031 37.5366L69.997 41.9999C73.6364 38.7878 77.3024 35.6035 80.9948 32.4471L83.8958 29.9789C84.8625 29.1657 85.8685 28.3591 86.7886 27.5315C88.6434 25.845 90.1636 23.8942 91.2853 21.7609C90.1325 24.2627 88.4242 26.5347 86.2617 28.4427L69.997 42.8274L53.7398 28.4427C51.7718 26.7038 50.1764 24.6638 49.031 22.4217Z" fill="white"/>
</g>
</g>
<g id="Group_10" style="mix-blend-mode:screen" opacity="0.5">
<g id="Vector_12" style="mix-blend-mode:screen" opacity="0.5">
<path d="M70.0197 55.8993C70.215 55.6864 71.8685 53.9318 74.4086 51.4861C75.7537 50.17 77.3469 48.6679 79.0745 47.0657C79.9455 46.275 80.8252 45.4442 81.7497 44.62C82.6742 43.7958 83.6161 42.9517 84.5455 42.1143C85.0115 41.7022 85.5148 41.2829 85.9509 40.8846C86.4318 40.4593 86.838 40.0472 87.2436 39.6191C88.0467 38.7755 88.7706 37.8753 89.408 36.9275C90.5492 35.2395 91.4241 33.4215 92.0085 31.5238C92.2791 30.6864 92.4364 29.8952 92.587 29.1976C92.6324 28.9445 92.6697 28.7057 92.6996 28.4823C92.7597 28.07 92.805 27.6977 92.8353 27.3653C92.88 26.8669 92.8875 26.4481 92.9099 26.1758C92.9255 25.9364 92.9329 25.7906 92.9329 25.7571C92.9553 25.9563 92.9627 26.1494 92.9702 26.3486C92.9851 26.6237 92.9926 26.8872 92.9926 27.1596C92.9926 27.5447 92.9777 27.937 92.9479 28.3227C92.6426 33.3093 90.2596 38.0192 86.2588 41.5432L70.0197 55.8993Z" fill="white"/>
</g>
</g>
<g id="Group_11" style="mix-blend-mode:multiply" opacity="0.2">
<g id="Vector_13" style="mix-blend-mode:multiply" opacity="0.2">
<path d="M47.6053 22.5746C47.7074 22.1834 47.8181 21.7933 47.9469 21.4071C48.0371 21.1408 48.1273 20.875 48.2324 20.6093C48.9927 18.6094 50.1036 16.7276 51.5247 15.0329C51.6597 14.8733 51.7953 14.7138 51.9452 14.5542C52.0809 14.4013 52.2233 14.2483 52.3664 14.0953C52.6594 13.7966 52.9524 13.4973 53.2679 13.2045C53.4184 13.0587 53.5789 12.9124 53.7338 12.7726H53.7413C53.8392 12.6774 53.9448 12.5886 54.0573 12.5069H54.0648C57.8263 9.30227 62.7106 7.32741 67.9119 6.9081C73.1132 6.48879 78.3208 7.65007 82.6754 10.2004C82.5778 10.1542 82.4197 10.0744 82.2244 9.9748C81.8188 9.77507 81.2178 9.50933 80.4433 9.1836C78.3072 8.32133 76.0376 7.74553 73.7094 7.47518C70.454 7.08919 67.1431 7.31417 63.9926 8.13545C62.2326 8.59946 60.5401 9.24411 58.9497 10.0562C57.3749 10.8708 55.9166 11.8499 54.606 12.9724C54.606 12.9724 54.5979 12.9658 54.5979 12.9724V12.979C54.5979 12.979 54.5905 12.9724 54.5905 12.979C54.5382 13.0186 54.4928 13.0653 54.4405 13.105C53.6034 13.8184 52.8318 14.5896 52.1331 15.4114C51.6998 15.9203 51.296 16.4483 50.9231 16.9933C49.9626 18.3798 49.1956 19.8641 48.6387 21.4137C48.6253 21.4461 48.6151 21.4794 48.6082 21.5133H48.6007V21.5199C48.1054 22.9395 47.7781 24.4009 47.624 25.8803C47.5311 26.7996 47.5084 27.7233 47.5562 28.6451C47.5792 29.1035 47.624 29.5557 47.6769 29.9877C47.9209 32.0539 48.5161 34.0758 49.4425 35.985C49.8033 36.67 50.0739 37.2147 50.2997 37.5668C50.4347 37.793 50.5324 37.9591 50.5853 38.0455C48.4819 35.1293 47.2652 31.7822 47.0529 28.3282L47.0454 28.3216C47.0149 27.9365 47 27.5442 47 27.1585C47 26.9989 47.0156 26.8393 47.0199 26.6798C47.0199 26.5697 47.0286 26.4597 47.0336 26.3458C47.051 25.9606 47.0796 25.581 47.1219 25.1986C47.1425 25.0093 47.1642 24.8206 47.191 24.6319C47.2196 24.4327 47.2476 24.2335 47.2831 24.0349C47.3453 23.6932 47.4137 23.3532 47.4933 23.0137C47.5282 22.8679 47.5668 22.7227 47.6053 22.5746Z" fill="black"/>
</g>
</g>
</g>
</g>
</g>
<defs>
<linearGradient id="paint0_linear_18_255" x1="-636" y1="490.081" x2="-636" y2="516.282" gradientUnits="userSpaceOnUse">
<stop stop-color="#3E6896"/>
<stop offset="0.247" stop-color="#355881"/>
<stop offset="0.75" stop-color="#1F324E"/>
<stop offset="1" stop-color="#131D32"/>
</linearGradient>
<linearGradient id="paint1_linear_18_255" x1="-635.906" y1="519.415" x2="-635.906" y2="537.704" gradientUnits="userSpaceOnUse">
<stop stop-color="#0098BA"/>
<stop offset="0.017" stop-color="#009BBC"/>
<stop offset="0.19" stop-color="#00BAD4"/>
<stop offset="0.371" stop-color="#00D3E7"/>
<stop offset="0.56" stop-color="#00E5F4"/>
<stop offset="0.762" stop-color="#00EFFC"/>
<stop offset="1" stop-color="#00F3FF"/>
</linearGradient>
<linearGradient id="paint2_linear_18_255" x1="-635.882" y1="503.533" x2="-635.882" y2="525.696" gradientUnits="userSpaceOnUse">
<stop stop-color="#5F2C82"/>
<stop offset="0.04" stop-color="#5D3283"/>
<stop offset="0.35" stop-color="#54618E"/>
<stop offset="0.625" stop-color="#4E8396"/>
<stop offset="0.851" stop-color="#4A989B"/>
<stop offset="1" stop-color="#49A09D"/>
</linearGradient>
</defs>
</svg>
